<?xml version="1.0" standalone="no"?><!DOCTYPE svg PUBLIC "-//W3C//DTD SVG 1.1//EN" "http://www.w3.org/Graphics/SVG/1.1/DTD/svg11.dtd"><svg t="1679506735051" class="icon" viewBox="0 0 1024 1024" version="1.1" xmlns="http://www.w3.org/2000/svg" p-id="1941" xmlns:xlink="http://www.w3.org/1999/xlink" width="200" height="200"><path d="M323.59616159 613.44742953a72.97692689 53.99565339 41.562 1 0 71.64485143-80.80339166 72.97692689 53.99565339 41.562 1 0-71.64485143 80.80339165Z" fill="#ff7600" p-id="1942"></path><path d="M404.12569816 488.78541101a72.97692689 52.14955253 49.439 1 0-94.90738384-110.88306858 72.97692689 52.14955253 49.439 1 0 94.90738384 110.88306859Z" fill="#ff7600" p-id="1943"></path><path d="M487.249006 417.02374693a72.97692689 52.14955252 57.556 1 0-78.30048349-123.17268671 72.97692689 52.14955252 57.556 1 0 78.3004835 123.17268671Z" fill="#ff7600" p-id="1944"></path><path d="M635.81628376 434.46574113a72.97692689 56.98857451 49.439 1 0-94.90738385-110.88306858 72.97692689 56.98857451 49.439 1 0 94.90738385 110.88306858Z" fill="#ff7600" p-id="1945"></path><path d="M674.52111045 460.56366073c-76.1240416 13.16466485-124.77950367 1.14716131-124.77950366 1.1471613-28.04611595-8.59184258-54.94507058-4.58073374-54.94507057-4.58073375-62.38579611 22.32217661-45.21397816 91.00549269-45.21397815 91.00549269 8.01430619 37.77720834 1.14716131 100.73658509 1.1471613 100.73658511-8.58788684 47.50434503 21.17501532 76.12008588 21.17501532 76.12008588 60.67296562 56.09223187 101.31016576 14.30787043 101.31016576 14.30787044 23.4653822-20.03972121 40.63720013-53.23224007 40.63720013-53.23224009 6.87110062-26.32537399 50.93791747-57.80506236 50.93791748-57.80506235 7.44072554-5.14640295 59.52580432-40.06361949 59.5258043-40.0636195 33.76214379-23.46933792 16.59428156-76.12008588 16.59428157-76.12008589-28.03424874-56.66581251-66.38899348-51.51545385-66.38899348-51.51545385ZM634.4891368 595.49356404c1.48339823 3.01030948 1.00871079 5.18596022-1.41219511 6.53881942-1.35285919 0.89399467-3.39401515 1.41615085-6.13929083 1.55064561-7.68202498 0.22152081-13.23191224-0.06724738-16.64966178-0.87421602a54.48794695 54.48794695 0 0 1-4.6440254-1.14716131c-1.12342693-0.30854682-2.04511169-0.01977864-2.7650543 0.87421602-4.35525721 5.17013731-9.47792578 9.88932156-15.36404997 14.16150847-0.76345563 0.5814921-0.96519779 1.55064563-0.60918221 2.89559336 1.53482271 5.30067635 2.89559335 10.53806104 4.11395778 15.70424263 1.39241648 5.07915555 0.6091822 8.96368105-2.36157001 11.66544371-1.52691124 1.07595818-3.03008812 1.68514039-4.51348635 1.81567944l-10.51432667-0.13449477c-1.09178109-0.18987497-2.06093461-0.54984627-2.90350482-1.06804673 0.07120311 0.80696863 0.07515884 1.67327319 0.00791147 2.61869236-0.31645828 5.97315022-1.75238777 11.19075628-4.31569993 15.63699523-2.19938511 4.35921293-4.91697068 8.20813689-8.15671244 11.52699322-5.75162942 6.20258248-13.05390445 9.64406638-21.91078084 10.31258449-4.26823118 0.04351302-8.59975403 0.02373437-13.00247998-0.06724736-3.28325477-0.22152081-6.0522648-0.83070302-8.29120717-1.81963517-4.18120516-1.6574503-8.35449885-4.26427545-12.53965975-7.81651978-4.71918426-3.91221561-8.57997538-8.17649107-11.59424059-12.80469354-2.97075219-4.58468947-4.87345765-9.46210287-5.72789504-14.62828443-1.57437999-11.90674315 0.87421604-21.59432256 7.34578805-29.05482675 5.9296372-6.4676163 12.62668576-11.32129532 20.09114567-14.5531256 2.24289812-0.81092437 4.3117442-1.29747899 6.19862675-1.48339822l11.46370155 0.13449477c3.46126255 0.31250257 6.17489238 1.68118465 8.15671242 4.11395776 1.66140602 2.11235908 1.91061692 4.74291862 0.73972126 7.88376715-0.8148801 2.34179135-2.49606476 4.20493953-5.05146546 5.59735599-5.48659559 2.51188768-9.77856115 4.87345765-12.87589667 7.0767985-3.01426522 2.29432259-5.18991594 5.10288994-6.53486369 8.42570197-1.57437999 4.81016601-1.24209879 9.86558718 1.00871081 15.17021927 1.93435129 4.71918426 5.27694198 9.31969664 10.04359497 13.81736008 2.02137733 1.83941381 4.4225046 3.25952038 7.21129328 4.24449682 0.54193482 0.17800778 1.19067433 0.15427343 1.95412995-0.07120314 2.42881736-0.80696863 4.51744208-2.04115596 6.26982986-3.7065177 4.76665299-4.13373639 8.38614469-9.77064969 10.85847506-16.91865131 0.40744005-1.57042427 0.44699733-3.05777824 0.13449478-4.44623898-0.26503381-3.23974175 0.96519779-5.18991594 3.71047343-5.87030128l7.68598073 0.1384505c0.81092437-0.09889322 1.53086698-0.10680467 2.16378355-0.02769009-0.28085674-0.55775773-0.52215617-1.10760401-0.74763271-1.6574503-3.46126255-10.11479808-6.98977247-20.15443733-10.58552978-30.13474064-5.25320761-13.78966999-8.71447015-23.90446808-10.37983191-30.33252708-0.3599713-1.88688255-0.31250257-3.50081982 0.1384505-4.85367903 1.34494773-3.95572862 4.24054109-6.26587414 8.69073578-6.94230374 7.63851197-0.26503381 12.67019878 0.09098176 15.10297188 1.07595821 1.34494773 0.53797909 3.61553596 1.64558311 6.79989751 3.30303338 13.25960235 6.87505635 24.91713459 12.20342281 34.98050821 15.97718791 2.91932774 1.12342693 5.15035867 1.86710392 6.6772699 2.22311949 0.67642959 0.22547653 1.2579217 0.31645828 1.74843208 0.26898956l7.34974376 0.0712031c2.38134863-0.31645828 4.47392906 0.33623693 6.26587415 1.95412995 1.09969255 0.94146341 1.99764295 2.1558721 2.67802827 3.6353146ZM647.0920882 499.30606686c-0.31645828 2.8323017-1.17089568 5.34814509-2.56331217 7.54753019-2.28641114 3.90825987-5.90590283 8.38218895-10.8505636 13.41387578-0.67247387 0.67247387-0.66851813 1.53086698 0 2.56331214 7.64246769 10.42730064 17.25884397 20.98514034 28.84912884 31.68143054 0.62500511 0.53797909 1.30539045 0.80696863 2.02137735 0.81092437 0.85839311 0.04351302 1.62184872 0.58544783 2.29432259 1.61393727 0.71598688 1.07991391 1.25396599 2.20334084 1.61789301 3.37423653 1.57437999 5.79909816-0.47073171 9.18915758-6.1353351 10.17808974l-10.17413404-0.07120312c-1.39241648-0.22152081-2.65429389-0.67642959-3.7737651-1.34494773-4.04671038-2.06884607-8.13297804-4.76269726-12.27067018-8.09342076-7.41303543-6.15511373-14.76277922-13.05390445-22.03736416-20.69241642-0.67247387-0.67247387-1.51108833-0.6487395-2.49606476 0.06724738-4.3671244 3.3702808-8.54437382 5.93359293-12.53965971 7.68202498-1.30143472 0.49446608-2.67407255 0.74367698-4.11000206 0.74763272l-10.04359497-0.06724738c-1.57042427-0.22547653-2.76109858-0.69620824-3.57597867-1.41615086-3.41379381-2.6938512-3.70651772-6.22236113-0.87421602-10.58157405 1.47944252-2.11235908 3.03404385-3.61949167 4.65193685-4.51744211 14.15755274-11.00879275 26.60227498-22.82850988 37.33812247-35.45519564 1.12738266-1.21440869 2.14004919-2.17960646 3.03404386-2.89954908 1.53086698-1.25396599 3.30698913-1.95412994 5.32836645-2.084669l9.91305593 0.06329166c1.38846075 0.1384505 2.63055953 0.61313793 3.7065177 1.42010658 2.10444763 1.39241648 2.9984423 3.40983807 2.68989549 6.06017627Z" fill="#ff7600" p-id="1946"></path><path d="M511.06644805 664.99176021c2.29036688 2.74131995 4.6282025 4.89719203 7.01350685 6.46761631 1.88688255 1.26187743 4.24054109 2.27058823 7.07284276 3.03008812 3.27929903 0.67642959 6.22236113 0.61313793 8.8291863-0.19778644 4.66775978-1.17089568 8.96763679-4.15747077 12.87589666-8.96763678 3.36632506-4.36316868 5.72393931-8.6511785 7.07284279-12.87194095 0.45095307-1.43988521 0.67642959-2.82834597 0.68038532-4.17724942-0.54193482-2.06884607-0.39952858-3.59575732 0.40744003-4.58468947 0.71598688-0.71598688 1.45966386-0.78719 2.22311948-0.20569789 1.62184872 1.17089568 2.19938511 3.82123386 1.75238779 7.95497027-0.26898954 2.96679648-0.85048164 5.70811639-1.75238778 8.22395979-5.61713464 13.88460747-14.27226888 22.22328339-25.95353549 25.00416063-7.00955112 1.35285919-13.09741747 0.61313793-18.26755476-2.22311949-4.22471815-2.33387989-8.16066815-5.18596022-11.7999385-8.55624101-6.5111293-5.97315022-10.917811-12.84820657-13.20817787-20.62912477-2.06884607-9.52935026-1.21045296-17.92736212 2.55935642-25.20985852 2.38134863-4.35921293 6.76429595-8.92412377 13.14488622-13.68286529 5.07915555-3.5522443 9.54517316-5.73185077 13.41387574-6.53881942 3.50477557-0.62500511 6.24609549-0.22547653 8.22395982 1.2144087 2.65429389 1.6574503 3.46126255 4.08626767 2.42881737 7.27854065-0.62896085 1.88688255-1.91457265 3.39401515-3.84101249 4.51348637-4.71918426 2.11631481-9.03092842 4.45019469-12.93918832 7.01350685-3.10524698 2.20334084-5.41539247 4.8774134-6.93834801 8.02221764-2.38530436 4.53722073-2.58704651 10.00008196-0.60522648 16.38067223 1.47548678 4.45019469 4.01506456 8.69864724 7.60686615 12.74140189ZM619.25167016 592.39227279c-0.54193482-0.3599713-1.09969255-0.41930724-1.68118467-0.20174215l-1.2144087 1.21440868c-0.45095307 0.18196351-0.94146341 0.22152081-1.4794425 0.13449478-7.27854067-1.2579217-15.03572449-3.65904899-23.25572856-7.21129329-10.1978684-4.44623897-20.51440864-9.41463413-30.93775357-14.89331825-4.22076243-2.60682517-8.09342077-2.87185897-11.59028487-0.80696864-3.05777824 2.33783562-3.82123386 5.66460338-2.29036686 9.97239185 1.17089568 4.05066611 2.87581471 9.12586593 5.12662428 15.23746665 5.03168681 13.75011269 9.50561588 26.26208232 13.41387577 37.54382036 1.16693993 4.22867389 2.71362983 7.7532281 4.65193686 10.57761834 1.34494773 1.9778643 3.32281203 2.65033818 5.92963721 2.02137733 2.55935642-0.76345563 3.90825987-2.87185897 4.03879893-6.33312154-0.04351302-1.57042427-0.26898954-3.06173395-0.67642961-4.45019469-1.48339823-6.24609549-2.94306209-11.88300878-4.38294733-16.91469559-0.39952858-1.21440869-0.01582291-2.22311948 1.15111704-3.03404385 6.37663454-4.3117442 12.55943837-10.26511577 18.54050007-17.86011472 0.71598688-0.89795039 1.72865341-1.14320557 3.02613238-0.73972126 5.53010861 2.11235908 10.88220945 3.59575732 16.04839103 4.45019468 3.63927034 0.57753639 6.67331418 0.20174216 9.0942201-1.15111701 0.89795039-0.53402336 1.10364829-1.45966386 0.60522648-2.75714285-0.72785407-2.08071327-2.09258045-3.6748719-4.11791349-4.79829883Zm-35.58969044-0.2650338c-0.18196351 0.71994261-0.80696863 1.66140602-1.88688255 2.82834595-2.20334084 2.65429389-5.14244722 5.18991594-8.82918628 7.61873334-1.79985652 1.44384096-2.96284073 1.12738266-3.50477556-0.94146343-1.70491904-4.22076243-3.68673907-9.88141011-5.93359293-16.9858987-0.27294528-0.62896085-0.17800778-1.03244517 0.26503381-1.21440869 0.72389833 0.00395572 1.45966386 0.20174216 2.22311948 0.60918222 5.66460338 2.33387989 10.96527974 4.67567123 15.90994053 7.0095511 1.1748514 0.53402336 1.7563435 0.89399467 1.7563435 1.07595821ZM635.36335282 499.31002258c-0.3599713 2.60682517-1.28165607 5.00795244-2.7650543 7.21129329-3.10524698 4.63215822-6.58628817 8.83314202-10.45103501 12.61086285-0.98893215 1.07595818-1.27770035 2.17960646-0.87421605 3.30303338 2.69780693 3.94781717 5.79909816 7.95101452 9.29596227 11.99376918 6.02061896 6.9225251 12.99456852 14.110084 20.89811433 21.5705882 0.89399467 0.98893215 1.84336953 1.48735398 2.82834594 1.48339822 0.62896085 0.00395572 1.21440869 0.49446608 1.75634352 1.48735396 1.52691124 2.68989547 1.66140602 5.11871284 0.40348432 7.27854066-1.12342693 1.30539045-2.65429389 1.93435129-4.58468947 1.88688257-0.94146341-0.22152081-1.99764295-0.65269523-3.1645829-1.28165606-5.52615289-2.91537201-11.36876407-7.27854067-17.52783353-13.07368311-5.88216847-5.07519982-12.80864928-11.90674315-20.75966382-20.49067429-0.81092437-0.89795039-1.78007789-0.87817176-2.89954908 0.0672474-4.54117646 3.72629636-8.87665504 6.89879072-13.01039143 9.50561589-2.29432259 1.47944252-4.53722073 2.60682517-6.73660584 3.36632505-3.50873129 0.81092437-5.77140806-0.10680467-6.80780896-2.76505431-0.49446608-2.29036688 0.15822915-4.4225046 1.95412993-6.40036891 0.80696863-1.07595818 1.81567943-1.99764295 3.03008813-2.76109858 13.84505018-10.6013527 26.31350679-22.31030943 37.41328132-35.11895872 2.11235908-2.74527566 4.20493953-4.42646034 6.26982985-5.05937689 1.6574503-0.31250257 2.98657511-0.01977864 3.97550728 0.87421602 1.53086698 0.70807542 2.11235908 2.15191638 1.7563435 4.3117442Z" fill="#ff7600" p-id="1947"></path></svg>