<?xml version="1.0" standalone="no"?><!DOCTYPE svg PUBLIC "-//W3C//DTD SVG 1.1//EN" "http://www.w3.org/Graphics/SVG/1.1/DTD/svg11.dtd"><svg t="1679506759553" class="icon" viewBox="0 0 1024 1024" version="1.1" xmlns="http://www.w3.org/2000/svg" p-id="1941" xmlns:xlink="http://www.w3.org/1999/xlink" width="200" height="200"><path d="M196.26732045 682.00857855a122.296875 90.4875 41.562 1 0 120.06454384-135.41269427 122.296875 90.4875 41.562 1 0-120.06454384 135.41269423Z" fill="#ff7600" p-id="1942"></path><path d="M331.22108031 473.09631072a122.296875 87.39375002 49.439 1 0-159.04857811-185.82109926 122.296875 87.39375002 49.439 1 0 159.04857811 185.82109928Z" fill="#ff7600" p-id="1943"></path><path d="M470.52155815 352.83600882a122.296875 87.39374999 57.556 1 0-131.21824732-206.41640188 122.296875 87.39374999 57.556 1 0 131.21824734 206.41640188Z" fill="#ff7600" p-id="1944"></path><path d="M719.49496067 382.06581439a122.296875 95.503125 49.439 1 0-159.04857812-185.82109925 122.296875 95.503125 49.439 1 0 159.04857812 185.82109925Z" fill="#ff7600" p-id="1945"></path><path d="M784.3576447 425.80147367c-127.57090215 22.06173154-209.10915287 1.92244657-209.10915283 1.92244656-47.00050387-14.39846186-92.07856117-7.676528-92.07856117-7.67652797-104.54794731 37.40815843-75.77091102 152.50967445-75.77091101 152.5096744 13.43060943 63.30815399 1.92244657 168.81732459 1.92244655 168.81732461-14.39183271 79.60917502 35.48571188 127.56427302 35.48571188 127.56427303 101.67753572 94.00100772 169.77854787 23.97754901 169.77854787 23.97754904 39.32397587-33.58315268 68.10101213-89.20814956 68.10101215-89.20814959 11.51479199-44.11683402 85.36325645-96.8714193 85.36325646-96.87141929 12.46938614-8.62449302 99.75508916-67.13978887 99.75508914-67.1397889 56.57959103-39.330605 27.80918387-127.56427302 27.80918389-127.56427305-46.98061647-94.962231-111.2566229-86.33110885-111.25662293-86.33110886ZM717.27088889 651.92096404c2.48592228 5.04476494 1.69042716 8.69078428-2.36659802 10.9579454-2.26716111 1.49818247-5.68779018 2.37322714-10.28840367 2.59861742-12.87376283 0.37123106-22.17442672-0.11269514-27.90199165-1.46503687a91.31249999 91.31249999 0 0 1-7.78259401-1.92244656c-1.88267181-0.51707182-3.42725817-0.03314563-4.63375912 1.46503684-7.29866781 8.66426778-15.88338607 16.57281518-25.74752567 23.73227137-1.27942133 0.97448153-1.61750677 2.59861743-1.02088542 4.85252027 2.57210092 8.88302892 4.85252029 17.65999183 6.89429114 26.31763053 2.33345241 8.51179787 1.0208854 15.02159969-3.95758829 19.54929278-2.55884261 1.8031223-5.07791054 2.82400771-7.56383285 3.04276888l-17.62021711-0.22539029c-1.82963879-0.31819805-3.45377469-0.92144852-4.86577852-1.78986404 0.11932427 1.35234172 0.1259534 2.80412031 0.01325824 4.38848146-0.53033008 10.00998036-2.93670283 18.75379766-7.23237653 26.20493537-3.68579409 7.30529693-8.24000372 13.7554366-13.66925798 19.3172734-9.63874931 10.39446969-21.87611603 16.16180935-36.71872931 17.28213164-7.15282703 0.07292039-14.41172009 0.03977476-21.78993742-0.11269513-5.50217465-0.37123106-10.14256289-1.39211647-13.89464824-3.04939799-7.00698625-2.77760383-14.00071428-7.14619791-21.01432966-13.09915314-7.90854743-6.55620569-14.37857445-13.70240359-19.42996852-21.45848109-4.97847369-7.68315712-8.16708332-15.85686958-9.59897455-24.51450819-2.63839218-19.95366948 1.46503687-36.18839924 12.31028713-48.69093103 9.93705998-10.83862113 21.16017043-18.97255883 33.66933131-24.38855483 3.75871447-1.35897084 7.22574742-2.17435335 10.38784056-2.48592228l19.21120736 0.2253903c5.80048533 0.52370096 10.3480658 2.81737858 13.66925796 6.89429109 2.78423294 3.53995331 3.20186788 7.94832215 1.2396466 13.21184828-1.36559997 3.92444263-4.18297855 7.04676101-8.46539403 9.38021339-9.19459787 4.20949506-16.38719965 8.16708332-21.57780535 11.85950654-5.05139408 3.84489312-8.69741341 8.55157265-10.95131627 14.12003854-2.63839218 8.06101731-2.08154561 16.53304044 1.69042714 25.42269849 3.24164265 7.90854743 8.84325418 15.61822105 16.8313511 23.15553737 3.38748342 3.08254362 7.41136295 5.46239989 12.08489683 7.11305231 0.90819027 0.29831067 1.99536695 0.25853595 3.27478829-0.11932429 4.07028337-1.35234172 7.57046198-3.42062905 10.50716482-6.21149113 7.98809693-6.92743673 14.0537473-16.3739414 18.19695107-28.3527722 0.68279998-2.63176305 0.74909125-5.12431446 0.22539029-7.45113772-0.44415145-5.42925427 1.61750677-8.69741341 6.21812025-9.8376231l12.88039196 0.2320194c1.35897084-0.16572816 2.56547181-0.1789864 3.62613197-0.04640385-0.47066795-0.93470678-0.87504464-1.85615531-1.25290484-2.77760384-5.80048533-16.95067536-11.71366577-33.77539733-17.73954135-50.50068243-8.80347942-23.10913349-14.60396475-40.05980891-17.39482683-50.83213874-0.60325047-3.16209312-0.52370096-5.86677657 0.23201941-8.13393769 2.25390286-6.62912607 7.10642316-10.5005357 14.56418998-11.63411626 12.80084244-0.44415145 21.23309081 0.15246989 25.31000336 1.80312231 2.25390286 0.90156114 6.05902124 2.75771645 11.39546772 5.53532026 22.2208306 11.52142112 41.75686514 20.45085396 58.62136186 26.7750402 4.89229506 1.88267181 8.63112214 3.12894751 11.18996481 3.72556888 1.13358057 0.37786019 2.10806209 0.53033008 2.93007374 0.45078057l12.31691625 0.11932426c3.99073389-0.53033008 7.49754157 0.56347569 10.5005357 3.27478829 1.84289705 1.577732 3.34770866 3.61287371 4.48791836 6.09216685ZM738.39128454 490.72713443c-0.53033008 4.74645426-1.96222133 8.96257845-4.2956737 12.64837255-3.83163488 6.54957655-9.89728524 14.04711814-18.18369281 22.47936652-1.12695143 1.12695143-1.12032229 2.56547181 0 4.29567369 12.80747157 17.47437631 28.92287706 35.16751382 48.34621643 53.09267072 1.04740193 0.90156114 2.18761163 1.35234172 3.38748347 1.35897086 1.43852036 0.07292039 2.71794165 0.98111066 3.8448931 2.70468342 1.19987182 1.80975141 2.10143297 3.69242323 2.71131258 5.65464457 2.63839218 9.71829882-0.78886599 15.39945987-10.28177456 17.05674137l-17.05011227-0.11932427c-2.33345241-0.37123106-4.44814357-1.13358057-6.32418627-2.25390287-6.78159597-3.46703294-13.62948321-7.9814678-20.56354907-13.56319194-12.42298226-10.31492017-24.7398985-21.87611603-36.93086138-34.6769585-1.12695143-1.12695143-2.53232615-1.08717668-4.18297855 0.11269514-7.31855518 5.64801542-14.31891232 9.94368911-21.01432963 12.87376285-2.18098249 0.82864077-4.48128922 1.24627572-6.88766201 1.25290484l-16.83135109-0.11269516c-2.63176305-0.37786019-4.62713001-1.16672618-5.99272998-2.37322713-5.72093581-4.51443486-6.21149113-10.42761533-1.46503685-17.73291222 2.47929315-3.53995331 5.0845397-6.06565033 7.79585226-7.57046201 23.72564222-18.44885785 44.58087282-38.25668657 62.57232101-59.41685699 1.88930093-2.03514171 3.58635723-3.65264846 5.08453969-4.85914942 2.56547181-2.10143297 5.5419494-3.27478828 8.92943282-3.49354948l16.61258996 0.10606604c2.32682326 0.23201941 4.40836883 1.02751454 6.21149112 2.37985627 3.52669508 2.33345241 5.02487756 5.71430668 4.50780573 10.15582115Z" fill="#ff7600" p-id="1946"></path><path d="M510.43552625 768.38808002c3.83826401 4.59398438 7.75607751 8.20685808 11.75344053 10.83862113 3.16209312 2.11469122 7.10642316 3.80511836 11.85287741 5.07791058 5.49554551 1.13358057 10.42761533 1.02751454 14.7962094-0.33145631 7.82236877-1.96222133 15.02822881-6.9672115 21.57780538-15.0282288 5.64138629-7.31192606 9.59234542-14.49789872 11.85287741-21.57117625 0.75572038-2.41300189 1.13358057-4.73982514 1.14020969-7.00035715-0.90819027-3.46703294-0.66954171-6.02587559 0.68279997-7.68315709 1.19987182-1.19987182 2.44614753-1.31919611 3.72556884-0.34471457 2.71794165 1.96222133 3.68579409 6.40373579 2.93670287 13.33117255-0.45078058 4.97184458-1.42526208 9.56582892-2.93670284 13.7819531-9.41335901 23.26823252-23.91788688 37.24243027-43.49369617 41.90270589-11.7468114 2.26716111-21.94903642 1.02751454-30.61330419-3.72556884-7.07990663-3.91118437-13.67588708-8.69078428-19.77468309-14.33879969-10.91154151-10.00998036-18.29638797-21.53140148-22.13465197-34.57089248-3.46703294-15.96956473-2.02851257-30.04319936 4.28904458-42.24742048 3.99073389-7.30529693 11.33580559-14.95530841 22.02858592-22.93014708 8.51179787-5.95295522 15.99608121-9.60560368 22.47936653-10.95794539 5.87340571-1.04740193 10.46739007-0.37786019 13.78195311 2.03514171 4.44814357 2.77760383 5.80048533 6.84788723 4.0702834 12.19759195-1.05403103 3.16209312-3.208497 5.68779018-6.43688142 7.56383287-7.90854743 3.54658245-15.13429475 7.45776684-21.68387138 11.75344052-5.203864 3.69242323-9.07527358 8.17371246-11.62748712 13.44386768-3.99736302 7.60360761-4.33544844 16.75843072-1.01425631 27.45121107 2.47266402 7.45776684 6.72856298 14.57744825 12.74780945 21.35241508ZM691.73549524 646.72372919c-0.90819027-0.60325047-1.84289705-0.70268737-2.81737858-0.33808542l-2.03514171 2.03514168c-0.75572038 0.3049398-1.577732 0.37123106-2.47929316 0.22539032-12.19759197-2.10806209-25.1973082-6.13194162-38.97263216-12.08489685-17.08988702-7.45113771-34.37864782-15.77732007-51.84639503-24.95865966-7.07327751-4.36859408-13.56319195-4.81274551-19.42333941-1.35234172-5.12431446 3.91781353-6.40373579 9.49290854-3.83826397 16.71202682 1.96222133 6.7882251 4.81937466 15.29339385 8.59134736 25.53539362 8.43224837 23.04284223 15.92978996 44.010768 22.47936652 62.91703558 1.95559219 7.08653578 4.54758048 12.9930871 7.79585227 17.72628313 2.25390286 3.31456302 5.5684659 4.44151447 9.93705998 3.38748344 4.28904455-1.27942133 6.54957655-4.81274551 6.76833775-10.61323086-0.07292039-2.63176305-0.45078058-5.13094358-1.13358059-7.45776683-2.48592228-10.46739007-4.93206981-19.91389473-7.34507169-28.34614309-0.66954171-2.03514171-0.02651649-3.72556885 1.9290757-5.0845397 10.68615123-7.22574742 21.04747527-17.20258215 31.07071391-29.93050422 1.19987182-1.50481162 2.89692809-1.91581743 5.07128144-1.23964658 9.26751825 3.53995331 18.23672586 6.02587559 26.89436448 7.45776683 6.098796 0.96785241 11.18333569 0.33808543 15.24036084-1.92907568 1.50481162-0.894932 1.84952618-2.44614753 1.01425629-4.62050087-1.21975918-3.48692032-3.50680769-6.15845813-6.90092026-8.04112994Zm-59.6422473-0.44415144c-0.3049398 1.20650094-1.35234172 2.78423294-3.16209315 4.73982514-3.69242323 4.44814357-8.6178639 8.69741341-14.79620937 12.76769682-3.01625236 2.41963103-4.96521543 1.88930093-5.8734057-1.57773202-2.85715334-7.07327751-6.17834548-16.55955694-9.9436891-28.46546735-0.45740969-1.05403103-0.29831067-1.73020191 0.44415143-2.03514171 1.21313005 0.00662911 2.44614753 0.33808543 3.72556886 1.02088542 9.49290854 3.91118437 18.37593747 7.83562703 26.66234506 11.74681138 1.96885043 0.894932 2.94333198 1.49818247 2.94333197 1.80312232ZM718.73592573 490.73376356c-0.60325047 4.36859408-2.14783685 8.39247361-4.63375911 12.08489683-5.203864 7.76270663-11.03749492 14.80283852-17.5141511 21.13365392-1.6572815 1.8031223-2.14120772 3.65264846-1.46503689 5.53532027 4.521064 6.61586783 9.71829882 13.32454339 15.57844631 20.09951025 10.08952988 11.60097063 21.77667915 23.6460927 35.02167307 36.14862449 1.49818247 1.6572815 3.08917275 2.49255141 4.73982509 2.48592227 1.05403103 0.00662911 2.03514171 0.82864077 2.943332 2.49255141 2.55884261 4.50780573 2.78423294 8.57808914 0.67617085 12.19759197-1.88267181 2.18761163-4.44814357 3.24164265-7.68315713 3.16209313-1.577732-0.37123106-3.34770866-1.0938058-5.30330084-2.1478368-9.26088912-4.88566594-19.05210834-12.19759197-29.37365763-21.90926171-9.85751047-8.50516873-21.46511022-19.95366948-34.78965365-34.3388731-1.35897084-1.50481162-2.98310674-1.47166598-4.8591494 0.11269515-7.61023673 6.24463675-14.87575891 11.56119587-21.80319566 15.92978999-3.84489312 2.47929315-7.60360761 4.36859408-11.28940171 5.64138627-5.88003483 1.35897084-9.67189494-0.1789864-11.40872594-4.63375911-0.82864077-3.83826401 0.26516505-7.41136295 3.27478826-10.725926 1.35234172-1.8031223 3.04276887-3.34770866 5.07791057-4.62712999 23.20194128-17.76605787 44.09694665-37.38827106 62.6982744-58.8533813 3.53995331-4.60061349 7.04676101-7.41799209 10.50716483-8.47865223 2.77760383-0.52370096 5.00499018-0.03314563 6.6622717 1.46503685 2.56547181 1.18661357 3.53995331 3.60624458 2.94333198 7.22574744Z" fill="#ff7600" p-id="1947"></path></svg>