<?xml version="1.0" standalone="no"?><!DOCTYPE svg PUBLIC "-//W3C//DTD SVG 1.1//EN" "http://www.w3.org/Graphics/SVG/1.1/DTD/svg11.dtd"><svg t="1660533004152" class="icon" viewBox="0 0 1024 1024" version="1.1" xmlns="http://www.w3.org/2000/svg" p-id="2640" xmlns:xlink="http://www.w3.org/1999/xlink" width="160" height="160"><defs><style type="text/css"></style></defs><path d="M791.18 942.1H232.99c-64.74 0-117.42-52.66-117.42-117.38v-279.3c0-16.02 12.98-29 29-29s29 12.98 29 29v279.29c0 32.74 26.65 59.38 59.42 59.38h558.19c32.74 0 59.38-26.64 59.38-59.38V545.42c0-16.02 12.98-29 29-29s29 12.98 29 29v279.29c0 64.73-52.66 117.39-117.38 117.39z" p-id="2641"></path><path d="M512.75 690.28c-16.02 0-29-12.98-29-29V132.67c0-16.02 12.98-29 29-29s29 12.98 29 29v528.61c0 16.02-12.98 29-29 29z" p-id="2642"></path><path d="M779.01 389.77a28.94 28.94 0 0 1-20.51-8.49L520.91 143.69c-4.5-4.5-11.83-4.5-16.33 0L267 381.28c-11.33 11.32-29.69 11.32-41.01 0-11.33-11.33-11.33-29.69 0-41.01l237.59-237.59c27.11-27.11 71.23-27.12 98.35 0l237.59 237.59c11.33 11.33 11.33 29.69 0 41.01a28.94 28.94 0 0 1-20.51 8.49z" p-id="2643"></path></svg>